/vscmnt/brussel_pixiu_data/_data_brussel/112/vsc11236/PredSimResults/SUBJ11mtu3D/weighted-LRposFixed/trackIG/worker_01.mot
version=1
nRows=4
nColumns=50
inDegrees=yes
endheader
                time	         pelvis_tilt	         pelvis_list	     pelvis_rotation	           pelvis_tx	           pelvis_ty	           pelvis_tz	       hip_flexion_r	     hip_adduction_r	      hip_rotation_r	        knee_angle_r	       ankle_angle_r	         mtp_angle_r	       hip_flexion_l	     hip_adduction_l	      hip_rotation_l	        knee_angle_l	       ankle_angle_l	         mtp_angle_l	    lumbar_extension	      lumbar_bending	     lumbar_rotation	 ercspn_r/activation	 intobl_r/activation	 extobl_r/activation	    abd_r/activation	    add_r/activation	hamstrings_r/activation	bifemsh_r/activation	glut_max_r/activation	iliopsoas_r/activation	rect_fem_r/activation	  vasti_r/activation	gastroc_r/activation	 soleus_r/activation	tib_ant_r/activation	 ercspn_l/activation	 intobl_l/activation	 extobl_l/activation	    abd_l/activation	    add_l/activation	hamstrings_l/activation	bifemsh_l/activation	glut_max_l/activation	iliopsoas_l/activation	rect_fem_l/activation	  vasti_l/activation	gastroc_l/activation	 soleus_l/activation	tib_ant_l/activation	
          0.00000000	         -6.32534053	         -4.70899952	          7.93525973	          0.00000000	          0.93687543	         -0.01616721	         32.07180286	          1.21740699	         -4.48118216	         -5.28060740	          5.36374001	          0.23352082	        -12.77201201	         -5.33377077	          3.19525554	         -8.92861774	         11.46749939	         29.83133542	         -4.13699762	          3.52031539	         -2.68101639	          0.08204768	          0.11325259	          0.02188760	          0.01341471	          0.13104372	          0.04267553	          0.20663834	          0.05890763	          0.07764335	          0.00999999	          0.00999999	          0.02282848	          0.00999999	          0.29425020	          0.06634908	          0.00999999	          0.00999999	          0.04189223	          0.03058844	          0.02206093	          0.10904954	          0.03449189	          0.42911173	          0.01000000	          0.01327323	          0.30641523	          0.24440123	          0.00999999	
          0.01375146	         -6.42751424	         -4.57225077	          7.92878845	          0.01878312	          0.93499347	         -0.01545687	         31.88919054	          1.26191764	         -4.52829194	         -6.70451575	          4.96376918	          0.18804287	        -12.81093832	         -5.26560994	          2.80765115	        -10.72276489	         10.73493569	         32.00350067	         -3.80907511	          3.82139321	         -2.88010330	          0.06674934	          0.09931870	          0.01780651	          0.04591190	          0.10660974	          0.05579231	          0.16810923	          0.08380685	          0.06316623	          0.00999999	          0.00999999	          0.01857195	          0.01229190	          0.32662655	          0.07974300	          0.00999999	          0.00999999	          0.03408114	          0.02822518	          0.02077774	          0.08871651	          0.02806065	          0.41008380	          0.01000000	          0.02177555	          0.25855621	          0.21737999	          0.00999999	
          0.02750291	         -6.50700465	         -4.43312074	          7.87277643	          0.03771222	          0.93359426	         -0.01464187	         31.55165881	          1.30463044	         -4.58910012	         -7.88911783	          4.35826260	          0.17884941	        -12.61539964	         -5.18899557	          2.39910875	        -12.95977577	          9.82829350	         34.20551560	         -3.49316987	          4.12854012	         -3.04911250	          0.07865675	          0.08080006	          0.01448636	          0.11280193	          0.12945540	          0.05121761	          0.13676413	          0.10747177	          0.05138846	          0.00999999	          0.00999999	          0.01510909	          0.00999999	          0.36921903	          0.11125606	          0.00999999	          0.00999999	          0.02772648	          0.02917616	          0.02212117	          0.07217472	          0.02282855	          0.39137631	          0.01000004	          0.01771535	          0.21034666	          0.17684802	          0.00999999	
          0.04125437	         -6.56307470	         -4.29233513	          7.77124701	          0.05648089	          0.93288062	         -0.01373308	         31.17089717	          1.35705954	         -4.66239185	         -9.00938553	          3.72399045	          0.13606958	        -12.08814712	         -5.10313384	          1.97589167	        -15.76694121	          8.73289108	         36.32448352	         -3.21704522	          4.44316192	         -3.18407366	          0.08174530	          0.06573434	          0.01178528	          0.14652119	          0.15305283	          0.04717865	          0.11126354	          0.12640720	          0.04180673	          0.00999999	          0.03998531	          0.01229190	          0.00999999	          0.40277301	          0.14271561	          0.00999999	          0.00999999	          0.02255669	          0.05392606	          0.01799654	          0.05871726	          0.01857201	          0.35990508	          0.00999999	          0.01441220	          0.17112610	          0.14387352	          0.00999999	
